<svg xmlns="http://www.w3.org/2000/svg" width="12.487" height="11.079" viewBox="0 0 12.487 11.079"><defs><style>.a{fill:#f52d5c;stroke:#f52d5c;stroke-width:0.4px;}</style></defs><g transform="translate(0.2 -29.636)"><g transform="translate(0 29.836)"><path class="a" d="M11.205,30.885a3.044,3.044,0,0,0-4.861.35,4.634,4.634,0,0,0-.3.488,4.631,4.631,0,0,0-.3-.488,3.044,3.044,0,0,0-4.861-.35A3.664,3.664,0,0,0,0,33.319a4.487,4.487,0,0,0,1.236,2.944,27.511,27.511,0,0,0,3.093,2.89c.468.4.951.811,1.466,1.261l.015.014a.354.354,0,0,0,.466,0l.015-.014c.515-.451,1-.863,1.466-1.261a27.507,27.507,0,0,0,3.093-2.889,4.487,4.487,0,0,0,1.236-2.944A3.664,3.664,0,0,0,11.205,30.885ZM7.3,38.613c-.4.344-.818.7-1.256,1.078-.438-.38-.853-.734-1.256-1.078C2.331,36.519.708,35.137.708,33.319a2.957,2.957,0,0,1,.7-1.965,2.364,2.364,0,0,1,1.8-.809,2.387,2.387,0,0,1,1.954,1.1,4.2,4.2,0,0,1,.542,1.078.354.354,0,0,0,.673,0,4.2,4.2,0,0,1,.542-1.078,2.337,2.337,0,0,1,3.752-.291,2.957,2.957,0,0,1,.705,1.965C11.379,35.137,9.756,36.519,7.3,38.613Z" transform="translate(0 -29.836)"/></g></g></svg>