<svg xmlns="http://www.w3.org/2000/svg" width="11" height="12" viewBox="0 0 11 12"><defs><style>.a{fill:#54b5f5;}</style></defs><path class="a" d="M317.918,17.625A1.625,1.625,0,1,1,316.293,16,1.625,1.625,0,0,1,317.918,17.625Zm0,0" transform="translate(-307.293 -15.625)"/><path class="a" d="M300.668,4a2,2,0,1,1,2-2A2,2,0,0,1,300.668,4Zm0-3.25A1.25,1.25,0,1,0,301.918,2,1.251,1.251,0,0,0,300.668.75Zm0,0" transform="translate(-291.668)"/><path class="a" d="M317.918,358.957a1.625,1.625,0,1,1-1.625-1.625A1.625,1.625,0,0,1,317.918,358.957Zm0,0" transform="translate(-307.293 -348.957)"/><path class="a" d="M300.668,345.332a2,2,0,1,1,2-2A2,2,0,0,1,300.668,345.332Zm0-3.25a1.25,1.25,0,1,0,1.25,1.25A1.251,1.251,0,0,0,300.668,342.082Zm0,0" transform="translate(-291.668 -333.332)"/><path class="a" d="M19.25,188.293a1.625,1.625,0,1,1-1.625-1.625A1.625,1.625,0,0,1,19.25,188.293Zm0,0" transform="translate(-15.625 -182.293)"/><path class="a" d="M2,174.668a2,2,0,1,1,2-2A2,2,0,0,1,2,174.668Zm0-3.25a1.25,1.25,0,1,0,1.25,1.25A1.251,1.251,0,0,0,2,171.418Zm0,0" transform="translate(0 -166.668)"/><path class="a" d="M114.849,93.86a.5.5,0,0,1-.248-.935l4.639-2.645a.5.5,0,1,1,.5.869l-4.64,2.645A.5.5,0,0,1,114.849,93.86Zm0,0" transform="translate(-111.668 -88.1)"/><path class="a" d="M119.51,269.864a.5.5,0,0,1-.247-.066l-4.64-2.645a.5.5,0,0,1,.5-.869l4.64,2.645a.5.5,0,0,1-.248.935Zm0,0" transform="translate(-111.69 -259.979)"/></svg>